<svg width="148" height="56" viewBox="0 0 148 56" fill="none" xmlns="http://www.w3.org/2000/svg">
<rect width="148" height="56" rx="28" fill="#D2C2FF"/>
<path d="M32.282 34C31.946 34 31.688 33.856 31.508 33.568C31.328 33.28 31.31 32.974 31.454 32.65L36.512 20.572C36.692 20.152 36.986 19.942 37.394 19.942C37.826 19.942 38.12 20.152 38.276 20.572L43.352 32.686C43.484 33.022 43.46 33.328 43.28 33.604C43.112 33.868 42.854 34 42.506 34C42.326 34 42.152 33.952 41.984 33.856C41.828 33.748 41.714 33.604 41.642 33.424L37.178 22.336H37.682L33.146 33.424C33.062 33.616 32.936 33.76 32.768 33.856C32.612 33.952 32.45 34 32.282 34ZM33.236 30.904L33.956 29.356H41.012L41.732 30.904H33.236ZM49.4287 34.072C48.4687 34.072 47.6107 33.856 46.8547 33.424C46.1107 32.98 45.5227 32.386 45.0907 31.642C44.6707 30.886 44.4607 30.034 44.4607 29.086C44.4607 28.114 44.6707 27.25 45.0907 26.494C45.5107 25.738 46.0867 25.15 46.8187 24.73C47.5507 24.298 48.3907 24.082 49.3387 24.082C50.0467 24.082 50.6947 24.22 51.2827 24.496C51.8707 24.76 52.3987 25.162 52.8667 25.702C53.0347 25.894 53.0947 26.092 53.0467 26.296C52.9987 26.5 52.8667 26.68 52.6507 26.836C52.4827 26.956 52.2967 26.998 52.0927 26.962C51.8887 26.914 51.7027 26.806 51.5347 26.638C50.9467 26.014 50.2147 25.702 49.3387 25.702C48.7267 25.702 48.1867 25.846 47.7187 26.134C47.2507 26.41 46.8847 26.8 46.6207 27.304C46.3567 27.808 46.2247 28.402 46.2247 29.086C46.2247 29.734 46.3567 30.31 46.6207 30.814C46.8967 31.318 47.2747 31.72 47.7547 32.02C48.2347 32.308 48.7927 32.452 49.4287 32.452C49.8487 32.452 50.2147 32.404 50.5267 32.308C50.8507 32.2 51.1447 32.038 51.4087 31.822C51.6007 31.666 51.7987 31.582 52.0027 31.57C52.2067 31.546 52.3867 31.6 52.5427 31.732C52.7467 31.9 52.8607 32.092 52.8847 32.308C52.9087 32.512 52.8367 32.698 52.6687 32.866C51.8047 33.67 50.7247 34.072 49.4287 34.072ZM60.2393 34.072C59.2793 34.072 58.4213 33.856 57.6653 33.424C56.9213 32.98 56.3333 32.386 55.9013 31.642C55.4813 30.886 55.2713 30.034 55.2713 29.086C55.2713 28.114 55.4813 27.25 55.9013 26.494C56.3213 25.738 56.8973 25.15 57.6293 24.73C58.3613 24.298 59.2013 24.082 60.1493 24.082C60.8573 24.082 61.5053 24.22 62.0933 24.496C62.6813 24.76 63.2093 25.162 63.6773 25.702C63.8453 25.894 63.9053 26.092 63.8573 26.296C63.8093 26.5 63.6773 26.68 63.4613 26.836C63.2933 26.956 63.1073 26.998 62.9033 26.962C62.6993 26.914 62.5133 26.806 62.3453 26.638C61.7573 26.014 61.0253 25.702 60.1493 25.702C59.5373 25.702 58.9973 25.846 58.5293 26.134C58.0613 26.41 57.6953 26.8 57.4313 27.304C57.1673 27.808 57.0353 28.402 57.0353 29.086C57.0353 29.734 57.1673 30.31 57.4313 30.814C57.7073 31.318 58.0853 31.72 58.5653 32.02C59.0453 32.308 59.6033 32.452 60.2393 32.452C60.6593 32.452 61.0253 32.404 61.3373 32.308C61.6613 32.2 61.9553 32.038 62.2193 31.822C62.4113 31.666 62.6093 31.582 62.8133 31.57C63.0173 31.546 63.1973 31.6 63.3533 31.732C63.5573 31.9 63.6713 32.092 63.6953 32.308C63.7193 32.512 63.6473 32.698 63.4793 32.866C62.6153 33.67 61.5353 34.072 60.2393 34.072ZM71.2118 34.072C70.2158 34.072 69.3278 33.862 68.5478 33.442C67.7798 33.01 67.1738 32.422 66.7298 31.678C66.2978 30.922 66.0818 30.058 66.0818 29.086C66.0818 28.102 66.2858 27.238 66.6938 26.494C67.1138 25.738 67.6898 25.15 68.4218 24.73C69.1538 24.298 69.9938 24.082 70.9418 24.082C71.8778 24.082 72.6818 24.292 73.3538 24.712C74.0258 25.12 74.5358 25.69 74.8838 26.422C75.2438 27.142 75.4238 27.976 75.4238 28.924C75.4238 29.152 75.3458 29.344 75.1898 29.5C75.0338 29.644 74.8358 29.716 74.5958 29.716H67.3418V28.276H74.5418L73.8038 28.78C73.7918 28.18 73.6718 27.646 73.4438 27.178C73.2158 26.698 72.8918 26.32 72.4718 26.044C72.0518 25.768 71.5418 25.63 70.9418 25.63C70.2578 25.63 69.6698 25.78 69.1778 26.08C68.6978 26.38 68.3318 26.794 68.0798 27.322C67.8278 27.838 67.7018 28.426 67.7018 29.086C67.7018 29.746 67.8518 30.334 68.1518 30.85C68.4518 31.366 68.8658 31.774 69.3938 32.074C69.9218 32.374 70.5278 32.524 71.2118 32.524C71.5838 32.524 71.9618 32.458 72.3458 32.326C72.7418 32.182 73.0598 32.02 73.2998 31.84C73.4798 31.708 73.6718 31.642 73.8758 31.642C74.0918 31.63 74.2778 31.69 74.4338 31.822C74.6378 32.002 74.7458 32.2 74.7578 32.416C74.7698 32.632 74.6738 32.818 74.4698 32.974C74.0618 33.298 73.5518 33.562 72.9398 33.766C72.3398 33.97 71.7638 34.072 71.2118 34.072ZM78.6835 38.212C78.4195 38.212 78.1975 38.122 78.0175 37.942C77.8495 37.774 77.7655 37.558 77.7655 37.294V29.086C77.7775 28.138 77.9995 27.286 78.4315 26.53C78.8635 25.774 79.4515 25.18 80.1955 24.748C80.9395 24.304 81.7795 24.082 82.7155 24.082C83.6635 24.082 84.5095 24.304 85.2535 24.748C85.9975 25.18 86.5855 25.774 87.0175 26.53C87.4615 27.286 87.6835 28.138 87.6835 29.086C87.6835 30.034 87.4795 30.886 87.0715 31.642C86.6755 32.386 86.1295 32.98 85.4335 33.424C84.7375 33.856 83.9515 34.072 83.0755 34.072C82.3675 34.072 81.7135 33.928 81.1135 33.64C80.5255 33.34 80.0215 32.938 79.6015 32.434V37.294C79.6015 37.558 79.5175 37.774 79.3495 37.942C79.1815 38.122 78.9595 38.212 78.6835 38.212ZM82.7155 32.452C83.3275 32.452 83.8735 32.308 84.3535 32.02C84.8335 31.72 85.2115 31.318 85.4875 30.814C85.7755 30.298 85.9195 29.722 85.9195 29.086C85.9195 28.438 85.7755 27.862 85.4875 27.358C85.2115 26.842 84.8335 26.44 84.3535 26.152C83.8735 25.852 83.3275 25.702 82.7155 25.702C82.1155 25.702 81.5695 25.852 81.0775 26.152C80.5975 26.44 80.2195 26.842 79.9435 27.358C79.6675 27.862 79.5295 28.438 79.5295 29.086C79.5295 29.722 79.6675 30.298 79.9435 30.814C80.2195 31.318 80.5975 31.72 81.0775 32.02C81.5695 32.308 82.1155 32.452 82.7155 32.452ZM94.0038 34C93.4038 34 92.8638 33.85 92.3838 33.55C91.9038 33.238 91.5258 32.818 91.2498 32.29C90.9738 31.762 90.8358 31.168 90.8358 30.508V21.922C90.8358 21.658 90.9198 21.442 91.0878 21.274C91.2558 21.106 91.4718 21.022 91.7358 21.022C91.9998 21.022 92.2158 21.106 92.3838 21.274C92.5518 21.442 92.6358 21.658 92.6358 21.922V30.508C92.6358 30.988 92.7678 31.39 93.0318 31.714C93.2958 32.038 93.6198 32.2 94.0038 32.2H94.6158C94.8318 32.2 95.0118 32.284 95.1558 32.452C95.3118 32.62 95.3898 32.836 95.3898 33.1C95.3898 33.364 95.2878 33.58 95.0838 33.748C94.8918 33.916 94.6398 34 94.3278 34H94.0038ZM90.0078 26.062C89.7558 26.062 89.5518 25.99 89.3958 25.846C89.2398 25.702 89.1618 25.522 89.1618 25.306C89.1618 25.066 89.2398 24.874 89.3958 24.73C89.5518 24.586 89.7558 24.514 90.0078 24.514H94.1658C94.4178 24.514 94.6218 24.586 94.7778 24.73C94.9338 24.874 95.0118 25.066 95.0118 25.306C95.0118 25.522 94.9338 25.702 94.7778 25.846C94.6218 25.99 94.4178 26.062 94.1658 26.062H90.0078ZM102.272 34.072C101.276 34.072 100.388 33.862 99.6084 33.442C98.8404 33.01 98.2344 32.422 97.7904 31.678C97.3584 30.922 97.1424 30.058 97.1424 29.086C97.1424 28.102 97.3464 27.238 97.7544 26.494C98.1744 25.738 98.7504 25.15 99.4824 24.73C100.214 24.298 101.054 24.082 102.002 24.082C102.938 24.082 103.742 24.292 104.414 24.712C105.086 25.12 105.596 25.69 105.944 26.422C106.304 27.142 106.484 27.976 106.484 28.924C106.484 29.152 106.406 29.344 106.25 29.5C106.094 29.644 105.896 29.716 105.656 29.716H98.4024V28.276H105.602L104.864 28.78C104.852 28.18 104.732 27.646 104.504 27.178C104.276 26.698 103.952 26.32 103.532 26.044C103.112 25.768 102.602 25.63 102.002 25.63C101.318 25.63 100.73 25.78 100.238 26.08C99.7584 26.38 99.3924 26.794 99.1404 27.322C98.8884 27.838 98.7624 28.426 98.7624 29.086C98.7624 29.746 98.9124 30.334 99.2124 30.85C99.5124 31.366 99.9264 31.774 100.454 32.074C100.982 32.374 101.588 32.524 102.272 32.524C102.644 32.524 103.022 32.458 103.406 32.326C103.802 32.182 104.12 32.02 104.36 31.84C104.54 31.708 104.732 31.642 104.936 31.642C105.152 31.63 105.338 31.69 105.494 31.822C105.698 32.002 105.806 32.2 105.818 32.416C105.83 32.632 105.734 32.818 105.53 32.974C105.122 33.298 104.612 33.562 104 33.766C103.4 33.97 102.824 34.072 102.272 34.072ZM109.708 27.844C109.708 27.124 109.882 26.482 110.23 25.918C110.59 25.342 111.07 24.886 111.67 24.55C112.27 24.214 112.93 24.046 113.65 24.046C114.37 24.046 114.904 24.166 115.252 24.406C115.612 24.634 115.75 24.91 115.666 25.234C115.63 25.402 115.558 25.534 115.45 25.63C115.354 25.714 115.24 25.768 115.108 25.792C114.976 25.816 114.832 25.81 114.676 25.774C113.908 25.618 113.218 25.606 112.606 25.738C111.994 25.87 111.508 26.116 111.148 26.476C110.8 26.836 110.626 27.292 110.626 27.844H109.708ZM109.726 34C109.438 34 109.216 33.928 109.06 33.784C108.904 33.628 108.826 33.4 108.826 33.1V25.054C108.826 24.766 108.904 24.544 109.06 24.388C109.216 24.232 109.438 24.154 109.726 24.154C110.026 24.154 110.248 24.232 110.392 24.388C110.548 24.532 110.626 24.754 110.626 25.054V33.1C110.626 33.388 110.548 33.61 110.392 33.766C110.248 33.922 110.026 34 109.726 34Z" fill="#0019A7"/>
</svg>
