<svg width="159" height="56" viewBox="0 0 159 56" fill="none" xmlns="http://www.w3.org/2000/svg">
<rect x="0.5" y="0.5" width="158" height="55" rx="27.5" fill="white" stroke="#D2C2FF"/>
<path d="M47.214 34C46.95 34 46.728 33.91 46.548 33.73C46.368 33.55 46.278 33.328 46.278 33.064V20.878C46.278 20.602 46.368 20.38 46.548 20.212C46.728 20.032 46.95 19.942 47.214 19.942H50.454C51.354 19.942 52.152 20.134 52.848 20.518C53.544 20.89 54.084 21.406 54.468 22.066C54.864 22.726 55.062 23.494 55.062 24.37C55.062 25.186 54.864 25.912 54.468 26.548C54.084 27.184 53.544 27.682 52.848 28.042C52.152 28.402 51.354 28.582 50.454 28.582H48.15V33.064C48.15 33.328 48.06 33.55 47.88 33.73C47.712 33.91 47.49 34 47.214 34ZM54.684 34C54.516 34 54.36 33.964 54.216 33.892C54.084 33.82 53.97 33.706 53.874 33.55L50.634 28.33L52.452 27.808L55.404 32.56C55.62 32.908 55.65 33.238 55.494 33.55C55.338 33.85 55.068 34 54.684 34ZM48.15 26.854H50.454C51.006 26.854 51.492 26.752 51.912 26.548C52.332 26.332 52.662 26.038 52.902 25.666C53.142 25.282 53.262 24.85 53.262 24.37C53.262 23.842 53.142 23.374 52.902 22.966C52.662 22.558 52.332 22.24 51.912 22.012C51.492 21.784 51.006 21.67 50.454 21.67H48.15V26.854ZM62.097 34.072C61.101 34.072 60.213 33.862 59.433 33.442C58.665 33.01 58.059 32.422 57.615 31.678C57.183 30.922 56.967 30.058 56.967 29.086C56.967 28.102 57.171 27.238 57.579 26.494C57.999 25.738 58.575 25.15 59.307 24.73C60.039 24.298 60.879 24.082 61.827 24.082C62.763 24.082 63.567 24.292 64.239 24.712C64.911 25.12 65.421 25.69 65.769 26.422C66.129 27.142 66.309 27.976 66.309 28.924C66.309 29.152 66.231 29.344 66.075 29.5C65.919 29.644 65.721 29.716 65.481 29.716H58.227V28.276H65.427L64.689 28.78C64.677 28.18 64.557 27.646 64.329 27.178C64.101 26.698 63.777 26.32 63.357 26.044C62.937 25.768 62.427 25.63 61.827 25.63C61.143 25.63 60.555 25.78 60.063 26.08C59.583 26.38 59.217 26.794 58.965 27.322C58.713 27.838 58.587 28.426 58.587 29.086C58.587 29.746 58.737 30.334 59.037 30.85C59.337 31.366 59.751 31.774 60.279 32.074C60.807 32.374 61.413 32.524 62.097 32.524C62.469 32.524 62.847 32.458 63.231 32.326C63.627 32.182 63.945 32.02 64.185 31.84C64.365 31.708 64.557 31.642 64.761 31.642C64.977 31.63 65.163 31.69 65.319 31.822C65.523 32.002 65.631 32.2 65.643 32.416C65.655 32.632 65.559 32.818 65.355 32.974C64.947 33.298 64.437 33.562 63.825 33.766C63.225 33.97 62.649 34.072 62.097 34.072ZM69.7127 34C69.4847 34 69.2807 33.916 69.1007 33.748C68.9207 33.58 68.8307 33.358 68.8307 33.082V24.208C68.8307 23.344 68.9987 22.594 69.3347 21.958C69.6827 21.322 70.1627 20.83 70.7747 20.482C71.3867 20.122 72.0947 19.942 72.8987 19.942C73.1627 19.942 73.3787 20.02 73.5467 20.176C73.7267 20.332 73.8167 20.53 73.8167 20.77C73.8167 20.998 73.7267 21.196 73.5467 21.364C73.3787 21.52 73.1627 21.598 72.8987 21.598C72.4547 21.598 72.0647 21.7 71.7287 21.904C71.3927 22.108 71.1287 22.39 70.9367 22.75C70.7567 23.11 70.6667 23.536 70.6667 24.028V33.082C70.6667 33.358 70.5827 33.58 70.4147 33.748C70.2467 33.916 70.0127 34 69.7127 34ZM68.0567 26.062C67.8047 26.062 67.6007 25.99 67.4447 25.846C67.2887 25.702 67.2107 25.522 67.2107 25.306C67.2107 25.066 67.2887 24.874 67.4447 24.73C67.6007 24.586 67.8047 24.514 68.0567 24.514H72.5027C72.7547 24.514 72.9587 24.586 73.1147 24.73C73.2707 24.874 73.3487 25.066 73.3487 25.306C73.3487 25.522 73.2707 25.702 73.1147 25.846C72.9587 25.99 72.7547 26.062 72.5027 26.062H68.0567ZM79.4001 34.09C78.5721 34.09 77.8281 33.916 77.1681 33.568C76.5201 33.208 76.0041 32.686 75.6201 32.002C75.2481 31.318 75.0621 30.478 75.0621 29.482V25.054C75.0621 24.79 75.1461 24.574 75.3141 24.406C75.4941 24.226 75.7161 24.136 75.9801 24.136C76.2441 24.136 76.4601 24.226 76.6281 24.406C76.8081 24.574 76.8981 24.79 76.8981 25.054V29.482C76.8981 30.154 77.0241 30.712 77.2761 31.156C77.5281 31.588 77.8701 31.912 78.3021 32.128C78.7341 32.332 79.2201 32.434 79.7601 32.434C80.2761 32.434 80.7321 32.332 81.1281 32.128C81.5361 31.924 81.8601 31.648 82.1001 31.3C82.3401 30.952 82.4601 30.562 82.4601 30.13H83.5941C83.5941 30.874 83.4081 31.546 83.0361 32.146C82.6761 32.746 82.1781 33.22 81.5421 33.568C80.9181 33.916 80.2041 34.09 79.4001 34.09ZM83.3781 34C83.1141 34 82.8921 33.916 82.7121 33.748C82.5441 33.568 82.4601 33.346 82.4601 33.082V25.054C82.4601 24.778 82.5441 24.556 82.7121 24.388C82.8921 24.22 83.1141 24.136 83.3781 24.136C83.6541 24.136 83.8761 24.22 84.0441 24.388C84.2121 24.556 84.2961 24.778 84.2961 25.054V33.082C84.2961 33.346 84.2121 33.568 84.0441 33.748C83.8761 33.916 83.6541 34 83.3781 34ZM91.1116 34.072C90.2716 34.072 89.4916 33.946 88.7716 33.694C88.0636 33.43 87.5116 33.1 87.1156 32.704C86.9356 32.512 86.8576 32.296 86.8816 32.056C86.9176 31.804 87.0376 31.6 87.2416 31.444C87.4816 31.252 87.7156 31.174 87.9436 31.21C88.1836 31.234 88.3876 31.336 88.5556 31.516C88.7596 31.744 89.0836 31.96 89.5276 32.164C89.9836 32.356 90.4876 32.452 91.0396 32.452C91.7356 32.452 92.2636 32.338 92.6236 32.11C92.9956 31.882 93.1876 31.588 93.1996 31.228C93.2116 30.868 93.0376 30.556 92.6776 30.292C92.3296 30.028 91.6876 29.812 90.7516 29.644C89.5396 29.404 88.6576 29.044 88.1056 28.564C87.5656 28.084 87.2956 27.496 87.2956 26.8C87.2956 26.188 87.4756 25.684 87.8356 25.288C88.1956 24.88 88.6576 24.58 89.2216 24.388C89.7856 24.184 90.3736 24.082 90.9856 24.082C91.7776 24.082 92.4796 24.208 93.0916 24.46C93.7036 24.712 94.1896 25.06 94.5496 25.504C94.7176 25.696 94.7956 25.9 94.7836 26.116C94.7716 26.32 94.6696 26.494 94.4776 26.638C94.2856 26.77 94.0576 26.812 93.7936 26.764C93.5296 26.716 93.3076 26.608 93.1276 26.44C92.8276 26.152 92.5036 25.954 92.1556 25.846C91.8076 25.738 91.4056 25.684 90.9496 25.684C90.4216 25.684 89.9716 25.774 89.5996 25.954C89.2396 26.134 89.0596 26.398 89.0596 26.746C89.0596 26.962 89.1136 27.16 89.2216 27.34C89.3416 27.508 89.5696 27.664 89.9056 27.808C90.2416 27.94 90.7336 28.072 91.3816 28.204C92.2816 28.384 92.9896 28.612 93.5056 28.888C94.0336 29.164 94.4116 29.488 94.6396 29.86C94.8676 30.22 94.9816 30.64 94.9816 31.12C94.9816 31.672 94.8316 32.17 94.5316 32.614C94.2436 33.058 93.8116 33.412 93.2356 33.676C92.6716 33.94 91.9636 34.072 91.1116 34.072ZM101.929 34.072C100.933 34.072 100.045 33.862 99.265 33.442C98.497 33.01 97.891 32.422 97.447 31.678C97.015 30.922 96.799 30.058 96.799 29.086C96.799 28.102 97.003 27.238 97.411 26.494C97.831 25.738 98.407 25.15 99.139 24.73C99.871 24.298 100.711 24.082 101.659 24.082C102.595 24.082 103.399 24.292 104.071 24.712C104.743 25.12 105.253 25.69 105.601 26.422C105.961 27.142 106.141 27.976 106.141 28.924C106.141 29.152 106.063 29.344 105.907 29.5C105.751 29.644 105.553 29.716 105.313 29.716H98.059V28.276H105.259L104.521 28.78C104.509 28.18 104.389 27.646 104.161 27.178C103.933 26.698 103.609 26.32 103.189 26.044C102.769 25.768 102.259 25.63 101.659 25.63C100.975 25.63 100.387 25.78 99.895 26.08C99.415 26.38 99.049 26.794 98.797 27.322C98.545 27.838 98.419 28.426 98.419 29.086C98.419 29.746 98.569 30.334 98.869 30.85C99.169 31.366 99.583 31.774 100.111 32.074C100.639 32.374 101.245 32.524 101.929 32.524C102.301 32.524 102.679 32.458 103.063 32.326C103.459 32.182 103.777 32.02 104.017 31.84C104.197 31.708 104.389 31.642 104.593 31.642C104.809 31.63 104.995 31.69 105.151 31.822C105.355 32.002 105.463 32.2 105.475 32.416C105.487 32.632 105.391 32.818 105.187 32.974C104.779 33.298 104.269 33.562 103.657 33.766C103.057 33.97 102.481 34.072 101.929 34.072ZM109.365 27.844C109.365 27.124 109.539 26.482 109.887 25.918C110.247 25.342 110.727 24.886 111.327 24.55C111.927 24.214 112.587 24.046 113.307 24.046C114.027 24.046 114.561 24.166 114.909 24.406C115.269 24.634 115.407 24.91 115.323 25.234C115.287 25.402 115.215 25.534 115.107 25.63C115.011 25.714 114.897 25.768 114.765 25.792C114.633 25.816 114.489 25.81 114.333 25.774C113.565 25.618 112.875 25.606 112.263 25.738C111.651 25.87 111.165 26.116 110.805 26.476C110.457 26.836 110.283 27.292 110.283 27.844H109.365ZM109.383 34C109.095 34 108.873 33.928 108.717 33.784C108.561 33.628 108.483 33.4 108.483 33.1V25.054C108.483 24.766 108.561 24.544 108.717 24.388C108.873 24.232 109.095 24.154 109.383 24.154C109.683 24.154 109.905 24.232 110.049 24.388C110.205 24.532 110.283 24.754 110.283 25.054V33.1C110.283 33.388 110.205 33.61 110.049 33.766C109.905 33.922 109.683 34 109.383 34Z" fill="#0019A7"/>
</svg>
